<svg id="visual" viewBox="0 0 900 100" width="900" height="100" xmlns="http://www.w3.org/2000/svg" xmlns:xlink="http://www.w3.org/1999/xlink" version="1.1"><path d="M0 30L12.5 30.2C25 30.3 50 30.7 75 27.5C100 24.3 125 17.7 150 14C175 10.3 200 9.7 225 13C250 16.3 275 23.7 300 34.2C325 44.7 350 58.3 375 65.8C400 73.3 425 74.7 450 66C475 57.3 500 38.7 525 35.7C550 32.7 575 45.3 600 55C625 64.7 650 71.3 675 69.2C700 67 725 56 750 49C775 42 800 39 825 44.8C850 50.7 875 65.3 887.5 72.7L900 80L900 0L887.5 0C875 0 850 0 825 0C800 0 775 0 750 0C725 0 700 0 675 0C650 0 625 0 600 0C575 0 550 0 525 0C500 0 475 0 450 0C425 0 400 0 375 0C350 0 325 0 300 0C275 0 250 0 225 0C200 0 175 0 150 0C125 0 100 0 75 0C50 0 25 0 12.5 0L0 0Z" fill="#64b4ff" stroke-linecap="round" stroke-linejoin="miter"></path></svg>