<svg id="visual" viewBox="0 0 900 100" width="900" height="100" xmlns="http://www.w3.org/2000/svg" xmlns:xlink="http://www.w3.org/1999/xlink" version="1.1"><path d="M0 49L12.5 53.8C25 58.7 50 68.3 75 73C100 77.7 125 77.3 150 73.3C175 69.3 200 61.7 225 54.3C250 47 275 40 300 42.7C325 45.3 350 57.7 375 63.8C400 70 425 70 450 60.8C475 51.7 500 33.3 525 24C550 14.7 575 14.3 600 23C625 31.7 650 49.3 675 53.2C700 57 725 47 750 40.2C775 33.3 800 29.7 825 34.5C850 39.3 875 52.7 887.5 59.3L900 66L900 0L887.5 0C875 0 850 0 825 0C800 0 775 0 750 0C725 0 700 0 675 0C650 0 625 0 600 0C575 0 550 0 525 0C500 0 475 0 450 0C425 0 400 0 375 0C350 0 325 0 300 0C275 0 250 0 225 0C200 0 175 0 150 0C125 0 100 0 75 0C50 0 25 0 12.5 0L0 0Z" fill="#0066FF" stroke-linecap="round" stroke-linejoin="miter"></path></svg>